<svg width="133" height="28" viewBox="0 0 133 28" fill="none" xmlns="http://www.w3.org/2000/svg">
<g clip-path="url(#clip0_2923_3627)">
<path d="M18.7262 17.2878H6.85325L2.52514 27.574H0.5L12.1569 0H15.1143L26.8453 27.5678H23.0914L18.7262 17.2816V17.2878ZM18.0039 15.5899L12.7681 3.32172L7.56946 15.5899H17.9977H18.0039ZM36.4338 25.981L54.8021 1.914H38.4219V0.216097H58.7721V1.83991L40.4409 25.8761H58.8462V27.574H36.4338V25.9872V25.981ZM72.0837 17.2137V0.216097H75.5845V16.9976C75.5845 23.3508 78.2579 26.2342 84.1357 26.2342C90.5199 26.2342 92.8661 22.5914 92.8661 16.5963V0.216097H94.743V16.9235C94.743 24.3943 90.915 28 83.2652 28C76.0475 28 72.0775 24.5733 72.0775 17.2075L72.0837 17.2137ZM108.598 27.5678V0.216097H116.106C122.601 0.216097 127.33 1.72878 127.33 7.03859C127.33 11.2247 124.225 13.3918 119.248 13.929L131.77 27.5678H128.028L116.05 14.4353H112.105V27.5678H108.604H108.598ZM115.674 12.8423C120.366 12.8423 123.435 11.5087 123.435 7.3226C123.435 3.13649 120.366 1.80287 115.643 1.80287H112.105V12.8423H115.68H115.674Z" fill="#003BCD"/>
</g>
<defs>
<clipPath id="clip0_2923_3627">
<rect width="132" height="28" fill="white" transform="translate(0.5)"/>
</clipPath>
</defs>
</svg>
