<svg width="264" height="56" viewBox="0 0 264 56" fill="none" xmlns="http://www.w3.org/2000/svg">
<g clip-path="url(#clip0_2923_221)">
<path d="M37.3099 34.5755H13.5639L4.9077 55.148H0.857422L24.1712 0H30.0861L53.548 55.1356H46.0402L37.3099 34.5632V34.5755ZM35.8651 31.1797L25.3937 6.64344L14.9963 31.1797H35.8528H35.8651ZM72.7251 51.9621L109.462 3.828H76.7013V0.432194H117.402V3.67982L80.7392 51.7522H117.55V55.148H72.7251V51.9744V51.9621ZM144.025 34.4273V0.432194H151.026V33.9952C151.026 46.7017 156.373 52.4684 168.129 52.4684C180.897 52.4684 185.59 45.1828 185.59 33.1925V0.432194H189.343V33.847C189.343 48.7885 181.687 56 166.388 56C151.952 56 144.012 49.1466 144.012 34.415L144.025 34.4273ZM217.053 55.1356V0.432194H232.069C245.059 0.432194 254.518 3.45755 254.518 14.0772C254.518 22.4494 248.307 26.7837 238.354 27.858L263.397 55.1356H255.914L231.958 28.8706H224.067V55.1356H217.066H217.053ZM231.204 25.6847C240.589 25.6847 246.726 23.0174 246.726 14.6452C246.726 6.27299 240.589 3.60573 231.143 3.60573H224.067V25.6847H231.217H231.204Z" fill="white"/>
</g>
<defs>
<clipPath id="clip0_2923_221">
<rect width="264" height="56" fill="white"/>
</clipPath>
</defs>
</svg>
