<svg id="eZjK4FhpJMx1" xmlns="http://www.w3.org/2000/svg" xmlns:xlink="http://www.w3.org/1999/xlink" viewBox="0 0 1380 723" shape-rendering="geometricPrecision" text-rendering="geometricPrecision">
<style><![CDATA[
#eZjK4FhpJMx3 {animation: eZjK4FhpJMx3_c_o 3000ms linear 1 normal forwards}@keyframes eZjK4FhpJMx3_c_o { 0% {opacity: 0} 68% {opacity: 0} 76.666667% {opacity: 1} 100% {opacity: 1}} #eZjK4FhpJMx6 {animation: eZjK4FhpJMx6_c_o 3000ms linear 1 normal forwards}@keyframes eZjK4FhpJMx6_c_o { 0% {opacity: 0} 62.333333% {opacity: 0} 73.333333% {opacity: 1} 100% {opacity: 1}} #eZjK4FhpJMx9 {animation: eZjK4FhpJMx9_c_o 3000ms linear 1 normal forwards}@keyframes eZjK4FhpJMx9_c_o { 0% {opacity: 0} 56.666667% {opacity: 0} 70% {opacity: 1} 100% {opacity: 1}} #eZjK4FhpJMx12 {animation: eZjK4FhpJMx12_c_o 3000ms linear 1 normal forwards}@keyframes eZjK4FhpJMx12_c_o { 0% {opacity: 0} 51% {opacity: 0} 63.333333% {opacity: 1} 100% {opacity: 1}} #eZjK4FhpJMx15 {animation: eZjK4FhpJMx15_c_o 3000ms linear 1 normal forwards}@keyframes eZjK4FhpJMx15_c_o { 0% {opacity: 0} 45.333333% {opacity: 0} 56.666667% {opacity: 1} 100% {opacity: 1}} #eZjK4FhpJMx18 {animation: eZjK4FhpJMx18_c_o 3000ms linear 1 normal forwards}@keyframes eZjK4FhpJMx18_c_o { 0% {opacity: 0} 39.666667% {opacity: 0} 50% {opacity: 1} 100% {opacity: 1}} #eZjK4FhpJMx21 {animation: eZjK4FhpJMx21_c_o 3000ms linear 1 normal forwards}@keyframes eZjK4FhpJMx21_c_o { 0% {opacity: 0} 34% {opacity: 0} 43.333333% {opacity: 1} 100% {opacity: 1}} #eZjK4FhpJMx24 {animation: eZjK4FhpJMx24_c_o 3000ms linear 1 normal forwards}@keyframes eZjK4FhpJMx24_c_o { 0% {opacity: 0} 28.333333% {opacity: 0} 40% {opacity: 1} 100% {opacity: 1}} #eZjK4FhpJMx27 {animation: eZjK4FhpJMx27_c_o 3000ms linear 1 normal forwards}@keyframes eZjK4FhpJMx27_c_o { 0% {opacity: 0} 22.666667% {opacity: 0} 36.666667% {opacity: 1} 100% {opacity: 1}} #eZjK4FhpJMx31 {animation: eZjK4FhpJMx31_c_o 3000ms linear 1 normal forwards}@keyframes eZjK4FhpJMx31_c_o { 0% {opacity: 0;animation-timing-function: cubic-bezier(0.461332,0.031023,0.731573,0.503649)} 13.333333% {opacity: 1} 100% {opacity: 1}} #eZjK4FhpJMx32 {animation: eZjK4FhpJMx32_c_o 3000ms linear 1 normal forwards}@keyframes eZjK4FhpJMx32_c_o { 0% {opacity: 0} 17% {opacity: 0} 30% {opacity: 1} 100% {opacity: 1}} #eZjK4FhpJMx33 {animation: eZjK4FhpJMx33_c_o 3000ms linear 1 normal forwards}@keyframes eZjK4FhpJMx33_c_o { 0% {opacity: 0} 11.333333% {opacity: 0} 23.333333% {opacity: 1} 100% {opacity: 1}} #eZjK4FhpJMx35 {animation: eZjK4FhpJMx35_c_o 3000ms linear 1 normal forwards}@keyframes eZjK4FhpJMx35_c_o { 0% {opacity: 0} 5.666667% {opacity: 0;animation-timing-function: cubic-bezier(0.436057,0.163027,0.746398,0.414526)} 20% {opacity: 1} 100% {opacity: 1}} #eZjK4FhpJMx36 {animation: eZjK4FhpJMx36_c_o 3000ms linear 1 normal forwards}@keyframes eZjK4FhpJMx36_c_o { 0% {opacity: 0} 73.666667% {opacity: 0} 83.333333% {opacity: 1} 100% {opacity: 1}} #eZjK4FhpJMx39 {animation: eZjK4FhpJMx39_c_o 3000ms linear 1 normal forwards}@keyframes eZjK4FhpJMx39_c_o { 0% {opacity: 0} 79.333333% {opacity: 0} 90% {opacity: 1} 100% {opacity: 1}} #eZjK4FhpJMx42 {animation: eZjK4FhpJMx42_c_o 3000ms linear 1 normal forwards}@keyframes eZjK4FhpJMx42_c_o { 0% {opacity: 0} 85% {opacity: 0} 93.333333% {opacity: 1} 100% {opacity: 1}} #eZjK4FhpJMx45 {animation: eZjK4FhpJMx45_c_o 3000ms linear 1 normal forwards}@keyframes eZjK4FhpJMx45_c_o { 0% {opacity: 0} 86.666667% {opacity: 0} 100% {opacity: 1}}
]]></style>
<g transform="matrix(.1 0 0-.1 0 723)"><g id="eZjK4FhpJMx3" opacity="0"><path d="M364,7138c19-51,72-196,119-323c47-126,189-513,317-860c127-346,262-713,300-815c67-181,541-1466,785-2130c197-536,502-1363,560-1520c30-80,102-275,161-435c279-760,318-867,351-957c20-54,40-98,44-98c5,0-5,37-22,83-17,45-71,190-119,322-136,371-434,1179-510,1385-73,196-307,831-420,1140-37,102-122,331-188,510s-240,651-387,1050-298,808-335,910C878,5782,397,7088,372,7158c-14,39-29,72-34,72-4,0,8-42,26-92Z"/><path d="M13423,7143c-17-49-146-398-286-778-140-379-510-1383-822-2230s-604-1641-650-1765c-127-345-470-1274-540-1465-76-208-309-840-324-877-6-16-7-28-2-28c4,0,81,199,171,443c89,243,222,604,296,802c211,573,642,1742,814,2210c87,237,244,664,350,950c105,286,289,783,407,1105c119,322,244,662,278,755c346,938,356,965,347,965-4,0-22-39-39-87Z"/></g><g id="eZjK4FhpJMx6" opacity="0"><path d="M780,7224c0-12,74-216,605-1654c185-503,399-1084,475-1290c141-383,375-1018,540-1465c50-137,224-608,385-1045s373-1011,470-1275C3406,84,3450,-27,3450,2c0,3-122,335-271,739s-313,849-364,989-123,336-160,435-113,306-170,460c-56,154-333,905-615,1670-486,1318-568,1540-765,2075-320,873-324,882-325,854Z"/><path d="M12997,7188c-13-38-795-2158-882-2393-18-49-153-416-300-815s-383-1040-525-1425-385-1044-539-1465c-155-421-309-837-342-924-32-88-57-161-54-164c8-8,7-10,98,238c47,129,146,399,220,600s239,649,367,995c127,347,263,713,300,815c38,102,161,435,273,740c647,1759,1410,3826,1414,3833c2,4,0,7-5,7-6,0-17-19-25-42Z"/></g><g id="eZjK4FhpJMx9" opacity="0"><path d="M1220,7227c0-6,240-661,442-1207c27-74,169-459,315-855s280-760,298-810c19-49,385-1044,815-2210C3981,-275,3881,-8,3886,5c2,6-46,145-107,310-452,1228-553,1501-639,1735-53,146-337,915-630,1710s-561,1522-595,1615c-392,1069-679,1842-686,1850-5,5-9,6-9,2Z"/><path d="M12562,7210c-5-14-82-221-169-460-146-397-1400-3799-1513-4105-26-71-152-413-280-760-127-346-269-731-315-855C10003,268,9909,7,9914,3c7-7-27-95,313,827c157,426,307,836,335,910c27,74,318,862,645,1750s616,1674,643,1745c26,72,193,523,370,1004c176,480,330,896,341,923c11,28,18,56,16,62-3,6-9,0-15-14Z"/></g><g id="eZjK4FhpJMx12" opacity="0"><path d="M1665,7213c4-10,31-83,60-163c30-80,168-455,308-835c140-379,336-913,437-1185c100-272,251-683,336-912c84-229,176-477,202-550c73-197,475-1289,541-1468c32-85,219-593,416-1127C4162,438,4327,0,4331,0c5,0-3,30-17,68-29,77-1002,2718-1134,3077-49,132-346,938-660,1790-314,853-633,1718-708,1923-75,204-141,372-145,372-5,0-6-8-2-17Z"/><path d="M12038,6992c-119-327-319-868-1433-3892C10073,1656,9598,368,9550,237c-48-130-84-237-80-237c5,0,12,12,18,28c5,15,121,328,257,697s279,756,317,860c188,510,562,1525,606,1645c28,74,132,357,231,628c100,272,242,656,315,855c74,199,238,646,366,992c127,347,254,691,282,765c27,74,99,268,158,430c60,162,112,303,115,313c4,9,3,17-1,17-5,0-48-107-96-238Z"/></g><g id="eZjK4FhpJMx15" opacity="0"><path d="M2162,7068c33-90,113-307,178-483s238-646,385-1045s282-765,300-815c38-101,543-1473,785-2130c87-236,235-639,330-895c94-256,273-742,397-1080s228-617,230-619c20-25-10,64-133,399-80,217-192,521-249,675-117,319-172,470-718,1950-85,231-218,591-295,800s-229,621-337,915-336,913-507,1375c-170,462-332,902-360,978-28,75-54,137-58,137s19-73,52-162Z"/><path d="M11578,6943c-131-355-852-2312-1068-2898-87-236-229-621-315-855s-219-594-295-800C9488,1270,9041,57,9025,18c-4-10-3-18,2-18s14,15,20,33c6,17,72,196,146,397s255,691,402,1090s336,912,420,1140s257,699,385,1045c127,347,269,731,315,855c96,259,461,1251,737,2000c104,283,202,550,218,593c16,42,25,77,21,77s-55-129-113-287Z"/></g><g id="eZjK4FhpJMx18" opacity="0"><path d="M2552,7215c5-19,270-740,428-1165c38-102,179-484,313-850c135-366,283-768,330-895c47-126,183-495,302-820c227-618,311-844,400-1085c66-178,525-1424,720-1955C5220,-32,5209,-4,5216,3c5,5-33,111-336,932-65,176-181,491-258,700-465,1264-617,1675-724,1965-66,179-208,564-315,855-199,540-269,730-328,890-19,50-144,392-280,760-393,1070-408,1109-418,1120-6,6-8,3-5-10Z"/><path d="M11236,7220c-3-8-29-78-57-155s-167-455-309-840-330-896-418-1135-183-496-210-570c-63-170-737-2001-967-2625-95-259-291-789-434-1179C8697,326,8582,5,8584,2c3-2,10,8,16,24c21,55,290,782,565,1529c698,1896,1145,3108,1350,3665c123,333,318,864,435,1180c116,316,231,629,256,694c24,66,43,124,40,130-2,6-6,5-10-4Z"/></g><g id="eZjK4FhpJMx21" opacity="0"><path d="M2994,7214c3-9,119-322,257-697s288-783,334-907s195-526,330-895c136-368,277-753,315-855c72-194,391-1060,1092-2965c61-165,132-358,159-430c26-72,75-204,108-294c60-161,67-179,74-170c2,2-71,207-163,454-186,504-365,989-510,1385-98,266-405,1098-498,1350-80,216-618,1677-692,1880-38,102-184,498-325,880s-304,827-363,987c-59,161-111,293-116,293-4,0-5-7-2-16Z"/><path d="M10797,7223c-3-5-400-1079-882-2388s-899-2438-925-2510c-26-71-145-393-263-715-119-322-301-816-405-1097C8218,231,8137,0,8141,0c9,0-3-32,231,605c99,270,241,654,315,855s199,541,278,755c79,215,441,1198,805,2185s679,1842,700,1900s106,289,189,514c130,350,163,450,138,409Z"/></g><g id="eZjK4FhpJMx24" opacity="0"><path d="M3454,7168c60-162,196-530,541-1468c147-399,390-1058,540-1465s402-1091,560-1520s309-841,337-915c27-74,176-477,330-895c153-418,291-793,306-832c15-40,31-73,36-73c4,0,5,8,1,18-4,9-76,204-160,432s-175,476-203,550c-74,200-610,1654-722,1960-54,146-195,531-315,855-293,794-728,1974-941,2555-97,261-207,562-246,668-39,105-75,192-79,192-5,0,2-28,15-62Z"/><path d="M10132,6628c-396-1076-523-1421-572-1553-75-205-397-1080-565-1535C8868,3195,7811,329,7719,77c-16-42-25-77-21-77s282,744,616,1652c335,909,682,1851,772,2093c314,853,1195,3244,1249,3393c19,50,31,92,27,92s-107-271-230-602Z"/></g><g id="eZjK4FhpJMx27" opacity="0"><path d="M3880,7222c0-8,69-196,365-997c57-154,192-520,300-814c247-674,316-860,365-991c21-58,172-467,335-910C6672,-364,6539,-5,6546,2c4,5-42,134-171,483-19,50-160,434-315,855s-297,806-315,855c-19,50-160,434-315,855s-405,1098-555,1505-402,1091-560,1520-316,858-351,953-64,177-64,182-4,12-10,15c-5,3-10,2-10-3Z"/><path d="M9902,7204c-6-16-88-238-182-494s-227-616-295-800c-293-794-659-1786-805-2185-87-236-431-1170-764-2074s-606-1646-606-1649c0-21,23,27,53,108c152,410,291,786,352,955c40,110,135,367,210,570c269,729,563,1526,1050,2850c73,198,228,619,345,935c116,316,251,683,300,815c48,132,149,406,224,609s135,374,133,379c-2,6-8-3-15-19Z"/></g><g><path id="eZjK4FhpJMx31" d="M5650,7227c0-3,234-642,521-1419c286-777,566-1538,622-1690c56-153,104-278,107-278s49,118,102,263c200,544,719,1953,732,1987c86,221,416,1133,412,1137s-36-61-36-73c0-2-22-64-49-136-27-73-130-353-229-623-230-625-608-1651-788-2137-76-208-141-378-144-378s-126,330-274,733c-148,402-381,1034-517,1402-135,369-290,789-344,935-85,231-115,304-115,277Z" opacity="0"/></g><path id="eZjK4FhpJMx32" d="M4320,7228c0-4,689-1876,1208-3283c39-104,199-541,357-970s411-1115,562-1525s314-852,361-982c48-131,89-238,92-238c4,0,12,17,19,37c8,21,146,398,308,838s350,951,418,1135c168,457,346,939,472,1280c58,157,161,436,228,620c140,381,586,1591,1015,2754c66,180,119,331,116,334-3,2-10-8-17-24-16-42-650-1762-794-2154-114-310-232-632-455-1235-184-497-727-1971-1166-3167-77-207-142-374-146-370-6,7-59,149-303,812-68,184-210,569-315,855-106,286-232,628-280,760-100,274-734,1994-785,2130-50,136-112,304-350,950-119,325-246,669-282,765s-105,285-155,420c-75,208-108,285-108,258Z" opacity="0"/><path id="eZjK4FhpJMx33" d="M4794,7138c37-100,605-1644,661-1793c18-49,49-133,68-185c20-52,146-396,282-765c135-368,277-753,315-855c74-199,640-1737,722-1960c27-74,52-138,56-142s49,106,99,245c131,356,177,481,883,2397c348,943,663,1798,700,1900c100,273,447,1212,455,1233c4,9,3,17-2,17s-14-15-20-32c-6-18-40-112-76-208-35-96-178-483-317-860s-312-847-385-1045c-161-435-597-1620-855-2320-422-1146-473-1285-479-1285-4,0-85,213-180,473-170,460-258,699-326,882-19,50-145,392-280,760-135,369-284,771-330,895s-212,576-370,1005-364,987-457,1240c-94,253-172,468-175,478-3,9-9,17-14,17s7-42,25-92Z" opacity="0"/><g><path id="eZjK4FhpJMx35" d="M5210,7224c0-11,174-487,537-1469c47-126,140-381,208-565c154-418,679-1843,828-2247c62-167,115-303,118-303s63,156,133,348c71,191,172,466,226,612s369,1001,700,1900s611,1656,621,1683c10,26,15,47,10,47s-13-12-19-27c-9-28-472-1283-537-1458-18-49-113-306-210-570s-196-532-219-595c-24-63-191-517-372-1007-180-491-331-893-334-893s-108,280-234,623c-126,342-248,674-272,737-23,63-153,414-288,780-134,366-282,769-329,895-47,127-189,513-317,860-221,601-249,674-250,649Z" opacity="0"/></g><g id="eZjK4FhpJMx36" opacity="0"><path d="M0,6938c0-8,115-327,256-709s318-863,394-1069s289-787,475-1290s384-1041,440-1195C1896,1772,2543,23,2551,10c23-40,2,26-70,221-43,118-198,539-345,936-146,398-319,868-385,1045-66,178-217,589-336,913-223,607-292,794-350,950-19,50-144,389-278,755-135,366-283,769-330,895-47,127-167,453-267,725s-184,497-186,499-4-2-4-11Z"/><path d="M13658,6578c-75-205-214-582-308-838-95-256-234-634-310-840-225-611-1322-3588-1450-3935-286-775-352-957-346-962c3-3,8,0,11,8c35,97,539,1466,605,1644c49,132,200,542,335,910c136,369,261,711,280,760c18,50,65,176,103,280c73,197,438,1186,737,2000c95,259,243,661,329,894c86,234,155,431,154,438-2,8-65-154-140-359Z"/></g><g id="eZjK4FhpJMx39" opacity="0"><path d="M1,5738c-1-14,192-545,414-1143c18-49,113-306,210-570s192-520,210-570c19-49,160-432,313-850c154-418,303-821,330-895s179-486,337-915c248-676,305-823,305-793c0,3-76,212-169,464-314,854-742,2017-861,2339-65,176-332,900-593,1610C-41,5873,1,5761,1,5738Z"/><path d="M13310,4432c-266-724-501-1362-521-1417-47-125-593-1606-739-2005-60-162-167-454-239-649s-131-357-131-360c0-26,32,49,103,244c125,338,605,1644,704,1910c47,127,194,527,328,890s275,746,313,850c39,105,181,492,317,860c136,369,269,730,296,804c47,125,67,191,58,191-2,0-222-593-489-1318Z"/></g><g id="eZjK4FhpJMx42" opacity="0"><path d="M1,4537c-1-15,72-220,214-602c18-49,160-434,315-855s406-1100,557-1510s342-931,426-1157C1596,186,1669,0,1673,0c5,0,6,8,2,18-7,16-306,826-728,1972-159,432-248,674-477,1295C255,3868,26,4489,15,4520c-8,19-14,27-14,17Z"/><path d="M13736,4384c-32-87-134-364-226-614-313-848-661-1793-820-2225-87-236-245-664-350-950-106-286-198-537-206-557-7-21-10-38-5-38c6,0,142,362,541,1450c241,656,1012,2749,1026,2783c50,131,105,290,102,299-2,6-30-61-62-148Z"/></g><g id="eZjK4FhpJMx45" opacity="0"><path d="M0,3330c0-7,27-85,59-174c106-288,650-1765,726-1971c41-110,156-420,255-689s182-491,185-494c17-18,1,33-96,293-59,160-234,634-389,1055s-313,848-350,950c-38,102-139,376-225,610C79,3143,7,3336,4,3339c-2,2-4-2-4-9Z"/><path d="M13481,2489c-173-470-340-924-372-1009-204-549-539-1465-539-1474c1-21,18,19,74,169c514,1388,1156,3143,1154,3154-2,7-144-371-317-840Z"/></g></g></svg>